<svg xmlns="http://www.w3.org/2000/svg" version="1.1" xmlns:xlink="http://www.w3.org/1999/xlink" xmlns:svgjs="http://svgjs.dev/svgjs" width="1500" height="1500" viewBox="0 0 1500 1500"><rect width="1500" height="1500" fill="#ffffff"></rect><g transform="matrix(0.6666666666666666,0,0,0.6666666666666666,249.39393939393938,650.4923854731767)"><svg viewBox="0 0 396 79" data-background-color="#ffffff" preserveAspectRatio="xMidYMid meet" height="299" width="1500" xmlns="http://www.w3.org/2000/svg" xmlns:xlink="http://www.w3.org/1999/xlink"><g id="tight-bounds" transform="matrix(1,0,0,1,0.2400000000000091,-0.06303571428571786)"><svg viewBox="0 0 395.52 79.12607142857144" height="79.12607142857144" width="395.52"><g><svg viewBox="0 0 395.52 79.12607142857144" height="79.12607142857144" width="395.52"><g><svg viewBox="0 0 395.52 79.12607142857144" height="79.12607142857144" width="395.52"><g id="textblocktransform"><svg viewBox="0 0 395.52 79.12607142857144" height="79.12607142857144" width="395.52" id="textblock"><g><svg viewBox="0 0 395.52 79.12607142857144" height="79.12607142857144" width="395.52"><g transform="matrix(1,0,0,1,0,0)"><svg width="395.52" viewBox="3.25 -35.01 174.98 35.01" height="79.12607142857144" data-palette-color="#2a2c35"><path d="M31.3-17.5L31.3-17.5Q31.3-15.09 30.68-12.85 30.05-10.62 28.91-8.68 27.76-6.74 26.17-5.14 24.58-3.54 22.63-2.39 20.68-1.25 18.44-0.62 16.21 0 13.79 0L13.79 0 3.25 0 3.25-35.01 13.79-35.01Q16.21-35.01 18.44-34.39 20.68-33.76 22.63-32.62 24.58-31.47 26.17-29.87 27.76-28.27 28.91-26.33 30.05-24.39 30.68-22.16 31.3-19.92 31.3-17.5ZM24.29-17.5L24.29-17.5Q24.29-19.68 23.47-21.58 22.66-23.49 21.23-24.91 19.8-26.34 17.88-27.17 15.97-28 13.79-28L13.79-28 10.3-28 10.3-7.01 13.79-7.01Q15.97-7.01 17.88-7.82 19.8-8.64 21.23-10.07 22.66-11.5 23.47-13.42 24.29-15.33 24.29-17.5ZM42.53-13.99L56.54-13.99 56.54-21Q56.54-22.44 55.99-23.72 55.44-25 54.49-25.95 53.54-26.9 52.26-27.45 50.97-28 49.53-28L49.53-28Q48.09-28 46.81-27.45 45.53-26.9 44.58-25.95 43.63-25 43.08-23.72 42.53-22.44 42.53-21L42.53-21 42.53-13.99ZM63.55-21L63.55 0 56.54 0 56.54-7.01 42.53-7.01 42.53 0 35.54 0 35.54-21Q35.54-23.9 36.64-26.45 37.74-29 39.63-30.91 41.53-32.81 44.08-33.91 46.63-35.01 49.53-35.01L49.53-35.01Q52.44-35.01 54.99-33.91 57.54-32.81 59.45-30.91 61.35-29 62.45-26.45 63.55-23.9 63.55-21L63.55-21ZM94.14-7.01L94.14 0 69.62 0 69.62-35.01 76.63-35.01 76.63-7.01 94.14-7.01ZM122.28-7.01L122.28 0 97.77 0 97.77-35.01 104.78-35.01 104.78-7.01 122.28-7.01ZM149.92-7.01L149.92 0 125.92 0 125.92-35.01 149.92-35.01 149.92-28 132.92-28 132.92-21 144.42-21 144.42-13.99 132.92-13.99 132.92-7.01 149.92-7.01ZM178.23-24.51L178.23-24.51Q178.23-22.34 177.4-20.42 176.57-18.51 175.15-17.08 173.72-15.65 171.81-14.82 169.91-13.99 167.74-13.99L167.74-13.99 164.22-13.99Q163.49-13.99 162.85-13.72 162.22-13.45 161.74-12.98 161.27-12.5 161-11.87 160.73-11.23 160.73-10.5L160.73-10.5 160.73-7.01 177.28-7.01 177.28 0 153.72 0 153.72-10.5Q153.72-12.67 154.55-14.59 155.38-16.5 156.81-17.93 158.24-19.36 160.14-20.18 162.05-21 164.22-21L164.22-21 167.74-21Q168.47-21 169.1-21.26 169.74-21.53 170.21-22.01 170.69-22.49 170.96-23.13 171.23-23.78 171.23-24.51L171.23-24.51Q171.23-25.24 170.96-25.88 170.69-26.51 170.21-26.99 169.74-27.47 169.1-27.73 168.47-28 167.74-28L167.74-28 155.24-28 155.24-35.01 167.74-35.01Q169.91-35.01 171.81-34.18 173.72-33.35 175.15-31.92 176.57-30.49 177.4-28.59 178.23-26.68 178.23-24.51Z" opacity="1" transform="matrix(1,0,0,1,0,0)" fill="#2a2c35" class="wordmark-text-0" data-fill-palette-color="primary" id="text-0"></path></svg></g></svg></g></svg></g></svg></g></svg></g><defs></defs></svg><rect width="395.52" height="79.12607142857144" fill="none" stroke="none" visibility="hidden"></rect></g></svg></g></svg>